<mxfile host="Electron" agent="Mozilla/5.0 (Macintosh; Intel Mac OS X 10_15_7) AppleWebKit/537.36 (KHTML, like Gecko) draw.io/26.1.1 Chrome/132.0.6834.210 Electron/34.3.3 Safari/537.36" version="26.1.1">
  <diagram name="Page-1" id="Zr3Cp21p8mofdYJmzNam">
    <mxGraphModel dx="1114" dy="878" grid="1" gridSize="10" guides="1" tooltips="1" connect="1" arrows="1" fold="1" page="1" pageScale="1" pageWidth="827" pageHeight="1169" math="0" shadow="0">
      <root>
        <mxCell id="0" />
        <mxCell id="1" parent="0" />
        <mxCell id="Rfs0QlB5RaLQJszIUBhN-5" value="CoroutineDispatcher" style="rounded=1;whiteSpace=wrap;html=1;fontStyle=1;verticalAlign=top;" vertex="1" parent="1">
          <mxGeometry x="250" y="100" width="230" height="250" as="geometry" />
        </mxCell>
        <mxCell id="Rfs0QlB5RaLQJszIUBhN-3" value="작업 대기열" style="rounded=1;whiteSpace=wrap;html=1;fontStyle=1;verticalAlign=top;" vertex="1" parent="1">
          <mxGeometry x="270" y="150" width="190" height="170" as="geometry" />
        </mxCell>
        <mxCell id="Rfs0QlB5RaLQJszIUBhN-2" value="launch 코루틴&lt;div&gt;&lt;b&gt;CoroutineStart.DEFAULT&lt;/b&gt;&lt;/div&gt;" style="rounded=0;whiteSpace=wrap;html=1;fillColor=#d5e8d4;strokeColor=none;" vertex="1" parent="1">
          <mxGeometry x="290" y="210" width="150" height="50" as="geometry" />
        </mxCell>
        <mxCell id="Rfs0QlB5RaLQJszIUBhN-4" value="runBlocking 코루틴&lt;div&gt;종료 시까지 실행 대기&lt;/div&gt;" style="text;html=1;align=center;verticalAlign=middle;whiteSpace=wrap;rounded=0;fontColor=#FF3333;" vertex="1" parent="1">
          <mxGeometry x="305" y="256" width="120" height="50" as="geometry" />
        </mxCell>
        <mxCell id="Rfs0QlB5RaLQJszIUBhN-6" value="메인 스레드" style="rounded=1;whiteSpace=wrap;html=1;fontStyle=1;verticalAlign=top;" vertex="1" parent="1">
          <mxGeometry x="520" y="150" width="190" height="130" as="geometry" />
        </mxCell>
        <mxCell id="Rfs0QlB5RaLQJszIUBhN-7" value="runBlocking 코루틴" style="rounded=0;whiteSpace=wrap;html=1;fillColor=#d5e8d4;strokeColor=none;" vertex="1" parent="1">
          <mxGeometry x="540" y="210" width="150" height="50" as="geometry" />
        </mxCell>
        <mxCell id="Rfs0QlB5RaLQJszIUBhN-8" value="" style="endArrow=blockThin;html=1;rounded=0;entryX=0;entryY=0.75;entryDx=0;entryDy=0;endFill=1;" edge="1" parent="1">
          <mxGeometry width="50" height="50" relative="1" as="geometry">
            <mxPoint x="40" y="274" as="sourcePoint" />
            <mxPoint x="250" y="273.5" as="targetPoint" />
          </mxGeometry>
        </mxCell>
        <mxCell id="Rfs0QlB5RaLQJszIUBhN-11" value="launch 코루틴 실행 요청" style="edgeLabel;html=1;align=center;verticalAlign=middle;resizable=0;points=[];" vertex="1" connectable="0" parent="Rfs0QlB5RaLQJszIUBhN-8">
          <mxGeometry x="-0.3333" relative="1" as="geometry">
            <mxPoint x="35" as="offset" />
          </mxGeometry>
        </mxCell>
        <mxCell id="Rfs0QlB5RaLQJszIUBhN-10" style="edgeStyle=orthogonalEdgeStyle;rounded=0;orthogonalLoop=1;jettySize=auto;html=1;entryX=0;entryY=0.5;entryDx=0;entryDy=0;endArrow=block;endFill=1;dashed=1;" edge="1" parent="1" source="Rfs0QlB5RaLQJszIUBhN-9" target="Rfs0QlB5RaLQJszIUBhN-2">
          <mxGeometry relative="1" as="geometry" />
        </mxCell>
        <mxCell id="Rfs0QlB5RaLQJszIUBhN-9" value="launch 코루틴&lt;div&gt;&lt;b&gt;CoroutineStart.DEFAULT&lt;/b&gt;&lt;/div&gt;" style="rounded=0;whiteSpace=wrap;html=1;fillColor=#d5e8d4;strokeColor=none;opacity=40;" vertex="1" parent="1">
          <mxGeometry x="70" y="210" width="150" height="50" as="geometry" />
        </mxCell>
      </root>
    </mxGraphModel>
  </diagram>
</mxfile>
